<?xml version="1.0" encoding="utf-8"?>
<!-- Generator: Adobe Illustrator 23.0.6, SVG Export Plug-In . SVG Version: 6.00 Build 0)  -->
<svg version="1.1" id="圖層_1" xmlns="http://www.w3.org/2000/svg" xmlns:xlink="http://www.w3.org/1999/xlink" x="0px" y="0px"
	 viewBox="0 0 209.1 52.2" style="enable-background:new 0 0 209.1 52.2;" xml:space="preserve">
<style type="text/css">
	.st0{fill:none;}
	.st1{fill:#DCC380;}
	.st2{fill:#638CA1;}
</style>
<g>
	<path class="st0" d="M65.6,27.5c-0.1-0.1-0.2-0.3-0.3-0.4c-0.3,0-0.6-0.1-0.9-0.2c-0.1,0-0.2,0-0.2-0.1c-0.8,0-1.4,0.5-1.9,1.2
		c-0.5,0.8-0.8,1.7-0.8,2.8c0,0.4,0,0.8,0.1,1.1c0.1,0.3,0.2,0.6,0.4,0.9c0.3,0.5,0.7,0.8,1.3,0.8l0,0c0.1,0,0.2,0,0.3,0
		c0.1,0,0.1,0,0.2,0c0.1,0,0.2-0.1,0.3-0.2c0.1,0,0.1-0.1,0.2-0.1c0.1-0.1,0.2-0.2,0.3-0.3c0.1,0,0.1-0.1,0.2-0.1
		c0.2-0.2,0.3-0.4,0.5-0.6c0.4-0.5,0.6-1,0.8-1.5c0.1-0.2,0.1-0.3,0.1-0.5C66,30,66,29.8,66,29.6c0-0.1,0-0.3,0-0.4
		C66,28.5,65.9,27.9,65.6,27.5z"/>
	<path class="st0" d="M99.5,30.5c0.3-0.3,0.6-0.6,0.7-0.9s0.2-0.6,0.3-0.9c0-0.2-0.1-0.4-0.3-0.6c-0.1-0.1-0.2-0.2-0.3-0.2
		s-0.2-0.1-0.3-0.1l0,0c-0.1,0-0.1,0-0.2,0c0,0-0.1,0-0.1,0c-0.1,0-0.1,0.1-0.2,0.1c0,0-0.1,0.1-0.1,0.1c-0.1,0.1-0.1,0.1-0.2,0.2
		c0,0-0.1,0.1-0.1,0.1c-0.1,0.1-0.1,0.2-0.2,0.3c0,0,0,0,0,0c0,0.1-0.1,0.1-0.1,0.2c-0.1,0.3-0.3,0.6-0.3,0.9
		c-0.1,0.5-0.2,1-0.3,1.5c0,0.1,0,0.2,0,0.4c0.4-0.2,0.7-0.4,1-0.6C99.1,30.9,99.3,30.7,99.5,30.5z"/>
	<path class="st1" d="M22.1,42c-1.8,2.5-3.6,5.1-5.8,7c-0.6,0.5-1.2,0.9-1.7,0.9c-0.2,0-0.4,0-0.5-0.1c-0.1-0.1-0.1-0.2-0.2-0.4
		c-0.2-0.5-0.4-1.3-0.5-2.1c-0.1-0.8-0.3-1.7-0.5-2.6c-0.3-1.4-0.9-2.9-1.7-4.3c0.2,0,0.4-0.1,0.6-0.1c2.7-0.6,5.6-1.1,8.4-1.9
		c-0.9-0.5-1.6-1.1-2.3-1.6c-0.5-0.1-1-0.2-1.5-0.2c-1.7-0.2-3.4-0.2-5.2-0.1c-0.9,0.1-1.8,0.2-2.9,0.6c-0.3,0.1-0.6,0.2-1.1,0.6
		c-0.2,0.2-0.6,0.5-0.8,1.1c-0.3,0.7-0.1,1.6,0.2,2C6.7,41.2,7,41.4,7,41.4l0.2,0.2c0.1,0.1,0.2,0.2,0.4,0.4c1,1,1.7,2.2,2.3,3.6
		c0.3,0.7,0.5,1.5,0.7,2.3c0.2,0.8,0.4,1.7,1,2.7c0.3,0.5,0.8,1.1,1.5,1.3c0.7,0.3,1.4,0.2,2,0.1c1.2-0.3,1.9-1,2.5-1.7
		c1.2-1.3,2.1-2.8,3-4.3c0.7-1.2,1.3-2.5,2-3.8C22.4,42.2,22.2,42.1,22.1,42z"/>
	<path class="st1" d="M27.9,25c1.9-4,3.9-8,6.3-11.5c0.6-0.9,1.3-1.7,2-2.4c0.7-0.7,1.6-1.2,2.5-1.3c0.9-0.1,1.9,0.2,2.7,0.8
		c0.8,0.5,1.5,1.3,2.1,2c0.2-0.2,0.5-0.4,0.7-0.7c-0.6-0.8-1.2-1.6-2-2.3c-0.9-0.8-2.2-1.5-3.6-1.5c-1.4,0-2.7,0.6-3.8,1.3
		c-1,0.7-1.9,1.6-2.7,2.5c-1.5,1.8-2.7,3.8-3.7,5.9c-1,2-1.9,4.1-2.7,6.2c-1.2,3.1-2.2,6.3-3.2,9.4c0.1,0.5,0.2,1.1,0.3,1.7
		C24.7,32,26.2,28.5,27.9,25z"/>
	<path class="st1" d="M34.8,42.8c-0.3-0.4-0.5-0.8-0.6-1.2c-3-0.3-6.1-0.7-9.1-1.2c0,0.2,0,0.5,0,0.8c3.6,1.3,7.3,2.2,11.1,2.9
		c0.1,0,0.3,0,0.4,0.1C35.8,43.8,35.2,43.4,34.8,42.8z"/>
	<path class="st1" d="M58.9,40.7l-0.3-0.6c-0.1-0.2-0.2-0.3-0.2-0.4l-0.2-0.3c-0.3-0.5-0.5-1-0.7-1.4c-0.5,0.8-1.4,1.4-2.5,1.6
		c0.2,0.4,0.4,0.8,0.6,1.2l0.2,0.4c0.1,0.1,0.2,0.3,0.2,0.3c0,0.1,0,0.1,0.1,0.2c0,0.1,0,0.1,0,0.1c0,0,0.1-0.1-0.1,0.1
		c-0.5,0.3-1.5,0.5-2.6,0.7c-1,0.1-2.2,0.2-3.3,0.2c-2.7,0-5.4-0.1-8.1-0.3c-0.5,0.8-1.6,2.1-3.3,2.3c3.7,0.7,7.5,1.1,11.4,1.2
		c1.2,0,2.4,0,3.7-0.2c1.2-0.2,2.5-0.3,4-1.3c0.4-0.3,0.7-0.6,1-1.1c0.2-0.2,0.2-0.5,0.3-0.8c0-0.1,0-0.3,0.1-0.4c0-0.1,0-0.2,0-0.4
		C59,41.2,58.9,40.9,58.9,40.7z"/>
	<path class="st1" d="M38.9,41.5c0.1-0.1,0.2-0.2,0.3-0.3c0,0,0.1-0.1,0.1-0.2c0.1-0.2,0.3-0.3,0.4-0.6c0,0,0,0,0,0
		c0.5-0.8,0.9-2,1.4-3.4c0.2-0.8,0.5-1.6,0.7-2.5c0.2-1.1,0.5-2.3,0.7-3.6c0.1-0.6,0.2-1.3,0.4-2c2.8-0.5,4.6-0.8,5.7-0.9l0,0
		c0.2,0.1,0.4,0.1,0.6,0.1c0.1,0,0.1,0,0.2,0c0.1,0,0.2,0,0.3,0c0,0,0.1,0,0.1,0c0,0,0.1,0,0.2,0c0.2-0.1,0.4-0.1,0.5-0.2
		c0,0,0,0,0,0c0.1-0.1,0.2-0.1,0.3-0.2c0.1-0.1,0.2-0.2,0.3-0.3c0.1-0.2,0.2-0.5,0.2-0.8c0-0.3-0.1-0.6-0.2-0.8
		c0-0.1-0.1-0.2-0.2-0.3c-0.1-0.1-0.3-0.2-0.5-0.3s-0.4-0.1-0.6-0.1l0,0l0,0l0,0c0,0,0,0-0.1,0c-0.1,0-0.2,0-0.3,0
		c-0.2,0-0.3,0-0.5,0c-0.1,0-0.2,0-0.3,0c-0.3,0-0.6,0.1-0.8,0.1l0,0l-0.2,0c-0.5,0.1-0.9,0.2-1.3,0.2c-0.4,0.1-0.8,0.1-1.1,0.2
		c-0.5,0.1-1,0.2-1.4,0.3c-0.1,0-0.3,0-0.4,0.1c0.1-0.4,0.2-0.9,0.3-1.3c0.1-0.4,0.2-0.8,0.3-1.2c0.1-0.5,0.3-1,0.5-1.5
		c0.2-0.5,0.3-0.9,0.5-1.3c0.1-0.3,0.2-0.6,0.4-0.9c0.2-0.3,0.3-0.6,0.5-0.9c0.2-0.5,0.5-0.9,0.8-1.3c0,0,0,0,0,0
		c0.2-0.3,0.4-0.5,0.7-0.8c1-1,2.3-1.6,3.8-1.7l0.2-0.1c0.1-0.1,0.3-0.2,0.4-0.3c0.3-0.3,0.5-0.7,0.6-1.3c0-0.1,0-0.2,0-0.4
		c0,0,0-0.1,0-0.1c-0.1-0.4-0.5-0.8-1.5-0.8l0,0l0,0c-0.1,0-0.2,0-0.3,0c-0.1,0-0.1,0-0.2,0c-0.1,0-0.2,0-0.3,0.1
		c-0.1,0-0.1,0-0.2,0c-0.1,0-0.3,0.1-0.4,0.1c-0.1,0-0.1,0-0.2,0.1c-0.2,0.1-0.4,0.2-0.7,0.3c-1,0.4-1.6,0.7-2,1.1
		c0,0-0.1,0.1-0.1,0.1c-0.2,0.1-0.3,0.3-0.5,0.5c-0.2,0.2-0.5,0.4-0.7,0.7c-0.9,1-1.7,2.2-2.4,3.7c-0.5,1.2-1,2.5-1.4,4
		c-0.3,1.1-0.6,2.4-0.8,3.7c-0.3,0.1-0.6,0.1-0.7,0.1c-0.2,0-0.3,0-0.5,0.1c0,0-0.1,0-0.1,0c-0.1,0-0.2,0-0.2,0c0,0-0.1,0-0.1,0
		c0,0-0.1,0-0.1,0c0,0,0,0-0.1,0c0,0-0.1,0-0.1,0l0,0l0,0c-0.1,0-0.3,0-0.4,0c-0.1,0-0.2,0-0.2,0c-0.1,0-0.2,0.1-0.3,0.2
		c-0.1,0-0.1,0.1-0.2,0.1c-0.1,0.1-0.1,0.2-0.2,0.3c0,0.1-0.1,0.1-0.1,0.2c-0.1,0.2-0.1,0.4-0.1,0.6c0,0.2,0,0.4,0.1,0.6
		c0.1,0.2,0.2,0.3,0.3,0.5c0.1,0.1,0.3,0.3,0.5,0.3c0.2,0.1,0.3,0.1,0.5,0.1c0.1,0,0.1,0,0.2,0c0,0,0.1,0,0.1,0c0.1,0,0.2,0,0.2,0
		c0,0,0.1,0,0.1,0c0.1,0,0.2,0,0.3,0c0,0,0.1,0,0.1,0c0.1,0,0.3,0,0.4-0.1c-0.3,1.6-0.5,2.9-0.8,3.9c0,0.1,0,0.2-0.1,0.3
		c-0.2,0.8-0.3,1.4-0.5,1.9c-0.2,0.7-0.4,1.2-0.5,1.6c-0.1,0.2-0.2,0.4-0.2,0.5c-0.1,0.1-0.1,0.2-0.2,0.3c0,0.1-0.1,0.1-0.1,0.2
		c0,0-0.1,0.1-0.1,0.1c0,0,0,0,0,0c0,0-0.1,0.1-0.2,0.1c-0.1,0.1-0.2,0.2-0.2,0.2c0,0-0.1,0.1-0.1,0.1c-0.1,0.1-0.2,0.2-0.2,0.3
		c-0.1,0.2-0.1,0.3-0.2,0.6c0,0,0,0.1,0,0.1c0,0.1,0,0.2,0,0.3c0,0.3,0.1,0.6,0.3,0.9c0.2,0.2,0.3,0.4,0.5,0.5
		c0.2,0.1,0.4,0.2,0.7,0.2c0.1,0,0.2,0,0.2,0c0,0,0.1,0,0.2,0c0.1,0,0.2-0.1,0.2-0.1C38.8,41.6,38.9,41.6,38.9,41.5z"/>
	<path class="st1" d="M52.1,31.5c0,0.1,0,0.4,0,1c0,0,0,0,0,0.1c0,0.4,0,0.7,0,0.9v0.1v0c0,0.2,0,0.3,0,0.5c0,0.2,0.1,0.5,0.2,0.7
		c0.1,0.2,0.2,0.4,0.3,0.7c0.2,0.4,0.5,0.8,0.8,1c0.1,0.1,0.2,0.1,0.3,0.2c0.2,0.1,0.4,0.2,0.6,0.2l0,0c0.1,0,0.2,0,0.2,0
		c0.1,0,0.1,0,0.2,0c0.1,0,0.1-0.1,0.2-0.1c0,0,0.1,0,0.1-0.1c0.1-0.1,0.1-0.1,0.1-0.2c0,0,0-0.1,0.1-0.1c0-0.1,0.1-0.3,0.1-0.4v0
		c0-0.3,0-0.6-0.1-0.9c0-0.5,0-1.1-0.1-1.7c0-0.1,0-0.2,0-0.3c0-0.3,0-0.7,0-1.1c0-0.4,0-0.8,0-1.2s0-0.8,0-1.2
		c0-0.9,0.1-1.8,0.1-2.7c0-0.6,0.1-1.3,0.2-2c0.1-1,0.2-2,0.4-3.1c0-0.1,0-0.3,0.1-0.4c0.1-0.5,0.2-0.9,0.2-1.4
		c0.2-1.3,0.5-2.4,0.8-3.4l0,0c0.3-0.1,0.5-0.2,0.6-0.4c0.2-0.1,0.3-0.3,0.4-0.4s0.2-0.3,0.2-0.4c0-0.1,0-0.2,0.1-0.4
		c0-0.5-0.2-1.1-0.8-1.6c-0.2-0.1-0.3-0.3-0.4-0.4c-0.3-0.2-0.5-0.3-0.7-0.4c-0.1,0-0.2-0.1-0.3-0.1c-0.1,0-0.1,0-0.2,0
		c0,0-0.1,0-0.1,0c-0.1,0-0.1,0.1-0.2,0.1c0,0-0.1,0-0.1,0.1c-0.1,0.1-0.1,0.1-0.2,0.2c0,0,0,0.1-0.1,0.1c-0.1,0.1-0.1,0.3-0.2,0.4
		c0,0,0,0.1,0,0.1c-0.3,0.9-0.6,1.8-0.8,2.7c-0.7,2.4-1.2,4.8-1.5,7.1c-0.1,0.7-0.2,1.4-0.2,2.1c0,0.1,0,0.2,0,0.3
		c0,0.4,0,0.8,0,1.2c0,0.1,0,0.2,0,0.4s0,0.2,0,0.3c0,0.6,0,1.1,0,1.7c0,0.2,0,0.4,0,0.6c0,0.2,0,0.3,0,0.5c0,0.1,0,0.1-0.1,0.2
		C52.2,30.8,52.1,31.1,52.1,31.5z"/>
	<path class="st1" d="M68,25.9c0,0,0-0.1-0.1-0.1c-0.7-1.1-1.6-1.8-2.7-2.3c-0.2-0.1-0.3-0.1-0.4-0.1c-0.2-0.1-0.3-0.1-0.4-0.1
		c-0.2,0-0.3,0-0.5,0l0,0l-0.1,0l-0.1,0l-0.1,0.1l0,0c-0.1,0.1-0.2,0.2-0.4,0.3s-0.4,0.2-0.6,0.3c-1.2,0.5-2.1,1.5-2.8,2.8
		c-0.4,0.7-0.7,1.4-0.9,2.1c-0.1,0.2-0.1,0.5-0.2,0.7c0,0.3-0.1,0.6-0.1,1c-0.1,1.5,0.3,2.8,1,3.8c0.8,1.3,2,2,3.4,2.1l0,0l0,0l0,0
		c0.1,0,0.3,0,0.4,0c0.1,0,0.2,0,0.3,0c0.1,0,0.3-0.1,0.4-0.1c0.1,0,0.2,0,0.3-0.1c0.2-0.1,0.3-0.1,0.5-0.2c0.1,0,0.2-0.1,0.2-0.1
		c0.2-0.1,0.5-0.3,0.7-0.5c0.9-0.7,1.6-1.4,1.9-2.3c0.1-0.3,0.2-0.5,0.3-0.7l0,0l0.1-0.3c0.4-0.8,0.6-1.8,0.6-3
		c0-0.9-0.1-1.8-0.5-2.6C68.3,26.4,68.2,26.1,68,25.9z M65.9,30.2c0,0.2-0.1,0.3-0.1,0.5c-0.2,0.5-0.4,1-0.8,1.5
		c-0.2,0.2-0.3,0.4-0.5,0.6c-0.1,0.1-0.1,0.1-0.2,0.1c-0.1,0.1-0.2,0.2-0.3,0.3c-0.1,0-0.1,0.1-0.2,0.1c-0.1,0-0.2,0.1-0.3,0.2
		c-0.1,0-0.1,0-0.2,0c-0.1,0-0.2,0-0.3,0l0,0c-0.5,0-0.9-0.3-1.3-0.8c-0.2-0.3-0.3-0.5-0.4-0.9c-0.1-0.3-0.1-0.7-0.1-1.1
		c0-1.1,0.3-2,0.8-2.8c0.5-0.8,1.1-1.2,1.9-1.2c0.1,0,0.2,0.1,0.2,0.1c0.3,0.1,0.6,0.2,0.9,0.2c0.1,0.1,0.2,0.2,0.3,0.4
		c0.3,0.4,0.4,1,0.4,1.6c0,0.1,0,0.2,0,0.4C66,29.8,66,30,65.9,30.2z"/>
	<path class="st1" d="M90.6,25.2c0-0.1-0.1-0.3-0.1-0.4c-0.2-0.4-0.3-0.6-0.6-0.8c-0.3-0.2-0.5-0.2-0.7-0.2l0,0l0,0
		c-0.2,0-0.3,0-0.5,0.1c-0.1,0-0.1,0-0.2,0c-0.2,0.1-0.3,0.2-0.5,0.3l0,0c-0.1,0.1-0.2,0.3-0.3,0.5c-0.1,0.2-0.1,0.4-0.1,0.7
		c0,0.1,0,0.2,0,0.3l0,0c0,0,0,0,0,0c0,0.1,0,0.2,0,0.4c0.1,0.3,0.1,0.4,0.1,0.5c-0.1,1-0.2,2.1-0.4,3.1c-0.1,0.4-0.1,0.7-0.2,1.1
		c-0.2,0.8-0.5,1.4-0.7,2c-0.3,0.6-0.6,1-0.9,1.4c-0.1,0.1-0.2,0.2-0.3,0.3c0,0-0.1,0-0.1,0.1c-0.1,0.1-0.1,0.1-0.2,0.2
		c0,0-0.1,0-0.1,0.1c-0.1,0-0.1,0.1-0.1,0.1c0,0-0.1,0-0.1,0.1c0,0-0.1,0.1-0.1,0.1c0,0-0.1,0-0.1,0c0,0-0.1,0-0.1,0s-0.1,0-0.1,0
		c0,0-0.1,0-0.1,0c0,0,0,0-0.1,0c0,0-0.1,0-0.1,0c0,0,0,0-0.1,0c0,0,0,0-0.1,0l0,0c-0.2,0-0.8-0.2-1.4-3c-0.2-0.9-0.4-2.1-0.6-3.7
		c-0.2-1.1-0.6-1.7-1.3-1.7l0,0c-0.1,0-0.2,0-0.2,0c-0.1,0-0.1,0-0.2,0c-0.1,0-0.1,0.1-0.2,0.1c-0.1,0-0.1,0-0.2,0.1
		c-0.1,0-0.1,0.1-0.2,0.1c0,0-0.1,0.1-0.1,0.1c-0.1,0.1-0.1,0.1-0.1,0.2c0,0-0.1,0.1-0.1,0.1c0,0.1-0.1,0.1-0.1,0.2
		c0,0-0.1,0.1-0.1,0.1c0,0.1-0.1,0.1-0.1,0.2c0,0,0,0.1-0.1,0.1c0,0.1-0.1,0.1-0.1,0.2c0,0,0,0.1,0,0.1c0,0.1-0.1,0.2-0.1,0.2
		c-0.4,1.2-1,2.3-1.8,3.3c-0.1,0.2-0.3,0.4-0.4,0.6c-0.2,0.2-0.4,0.5-0.6,0.7c-0.6,0.7-1.2,1.2-1.8,1.5c-0.2-0.4-0.3-0.9-0.4-1.4
		c-0.3-1.5-0.4-3.3-0.3-5.5c0-0.1,0-0.2,0-0.3c0-0.1,0.1-0.3,0.1-0.5c0.1-0.2,0.1-0.4,0.2-0.7l0-0.1c0.2-0.7,0.3-1.1,0.3-1.4
		c0-0.5,0-0.9-0.1-1.3c-0.2-0.6-0.6-1-0.9-1.1c-0.2-0.1-0.4-0.1-0.5-0.1c-0.1,0-0.2,0-0.3,0c-0.1,0-0.2,0-0.2,0
		c-0.1,0-0.2,0.1-0.3,0.1c-0.1,0-0.1,0.1-0.2,0.1c-0.1,0.1-0.2,0.2-0.2,0.3c0,0-0.1,0.1-0.1,0.1c-0.1,0.2-0.2,0.4-0.2,0.5
		c0,0,0,0,0,0c-0.1,0.5-0.2,0.9-0.3,1.4c0,0.2-0.1,0.3-0.1,0.5c-0.1,0.7-0.2,1.4-0.2,2.1c0,0.3,0,0.7,0,1.1c0,1.1,0.2,2.4,0.4,3.7
		c0.1,0.8,0.3,1.7,0.5,2.5c0.1,0.5,0.3,1,0.6,1.5c0,0.1,0.1,0.1,0.1,0.2c0,0.1,0.1,0.1,0.1,0.2c0.2,0.4,0.5,0.7,0.7,0.8
		c0.2,0.1,0.3,0.2,0.5,0.2c0.1,0,0.1,0,0.1,0l0,0l0,0l0,0c0.1,0,0.1,0,0.2,0c0.1,0,0.1,0,0.2,0c0.1,0,0.1,0,0.2,0s0.1,0,0.2,0
		c0.1,0,0.1-0.1,0.2-0.1s0.1,0,0.2-0.1c0.1,0,0.2-0.1,0.2-0.1c0.1,0,0.1-0.1,0.2-0.1c0.1,0,0.2-0.1,0.3-0.2c0.1,0,0.1-0.1,0.2-0.1
		c0.1-0.1,0.2-0.2,0.3-0.2c0.1,0,0.1-0.1,0.2-0.2c0.1-0.1,0.2-0.2,0.3-0.3c0.1-0.1,0.1-0.1,0.2-0.2c0.2-0.1,0.3-0.3,0.5-0.5
		c0,0,0.1,0,0.1-0.1c0.1-0.1,0.2-0.2,0.4-0.4c0.9-0.9,1.6-1.7,2.1-2.5c0.5,2,1.2,3.4,2.1,4.2c0.1,0.1,0.2,0.1,0.2,0.2
		c0.1,0.1,0.2,0.2,0.3,0.2c0.4,0.2,0.8,0.3,1.3,0.3l0,0l0,0l0,0c0.2,0,0.3,0,0.4,0c0.1,0,0.2,0,0.3,0c0.1,0,0.2,0,0.3-0.1
		c0.1,0,0.2,0,0.3-0.1c0.1,0,0.2-0.1,0.3-0.1c0.1,0,0.2-0.1,0.3-0.1c0.1-0.1,0.2-0.1,0.3-0.2c0.1,0,0.2-0.1,0.2-0.2
		c0.1-0.1,0.2-0.2,0.3-0.3c0.1-0.1,0.2-0.1,0.2-0.2c0.1-0.1,0.2-0.2,0.3-0.3c0.1-0.1,0.1-0.1,0.2-0.2c0.1-0.1,0.2-0.3,0.3-0.5
		c0.1-0.1,0.1-0.1,0.2-0.2c0.2-0.2,0.3-0.5,0.5-0.8c0.1-0.2,0.2-0.4,0.3-0.6c0.7-1.2,1.2-2.6,1.5-4.1c0.1-0.2,0.1-0.4,0.2-0.6
		c0,0,0,0,0,0c0.1-0.1,0.2-0.4,0.3-0.7c0.1-0.4,0.2-0.9,0.2-1.8c0-0.4,0-0.8-0.1-1.4C90.7,25.6,90.6,25.4,90.6,25.2z"/>
	<path class="st1" d="M104,36.6c-0.1-0.2-0.2-0.3-0.2-0.5c0,0-0.1-0.1-0.2-0.2c-0.2-0.2-0.4-0.4-0.8-0.4c0,0-0.1,0-0.1,0
		c0,0,0,0-0.1,0c0,0-0.1,0-0.1,0c0,0-0.1,0-0.1,0c-0.1,0-0.1,0-0.2,0c0,0-0.1,0-0.1,0c-0.1,0-0.2,0-0.4,0c-0.2,0-0.4,0-0.5,0.1
		c0,0-0.1,0-0.1,0c-0.1,0-0.3,0-0.4,0c-0.1,0-0.1,0-0.2,0c-0.4,0-0.7-0.1-1-0.3c-0.2-0.1-0.4-0.2-0.5-0.4c0,0-0.1,0-0.1-0.1
		c0,0,0,0-0.1-0.1c-0.1-0.1-0.2-0.3-0.3-0.4l0,0c0.3-0.1,0.6-0.3,0.9-0.4c0.6-0.3,1.1-0.7,1.6-1.1c0.2-0.2,0.4-0.4,0.7-0.6
		c0.3-0.3,0.5-0.6,0.8-0.9c0.4-0.6,0.7-1.2,0.9-1.9c0.1-0.3,0.1-0.6,0.2-1c0-0.6-0.1-1.1-0.3-1.6c-0.1-0.3-0.3-0.6-0.5-0.9
		c-0.4-0.5-0.9-0.8-1.3-1.1c-0.2-0.1-0.4-0.2-0.6-0.3c-0.2-0.1-0.4-0.1-0.7-0.1l0,0l0,0c-0.1,0-0.2,0-0.3,0c-0.1,0-0.2,0-0.2,0
		c-0.1,0-0.2,0-0.3,0c-0.1,0-0.2,0-0.2,0c-0.1,0-0.2,0.1-0.3,0.1c-0.1,0-0.1,0-0.2,0.1c-0.1,0-0.2,0.1-0.3,0.1
		c-0.1,0-0.1,0.1-0.2,0.1c-0.1,0.1-0.2,0.1-0.2,0.2c-0.1,0-0.1,0.1-0.2,0.1c-0.1,0.1-0.2,0.2-0.2,0.2C97.1,25.9,97.1,26,97,26
		c-0.1,0.1-0.2,0.2-0.3,0.3c0,0.1-0.1,0.1-0.1,0.2c-0.1,0.2-0.2,0.4-0.4,0.5c0,0,0,0,0,0c-0.3,0.6-0.6,1.1-0.8,1.7
		c-0.2,0.5-0.3,1-0.4,1.5c-0.1,0.4-0.1,0.8-0.1,1.1c0,0.1,0,0.2,0,0.3c0,0.2,0,0.4,0,0.6c-0.4,0-0.8-0.2-1.2-0.4
		c-0.3-0.2-0.5-0.4-0.6-0.5c-0.2-0.1-0.3-0.2-0.4-0.2c-0.1,0-0.1,0-0.2,0l0,0l0,0c-0.1,0-0.3,0-0.4,0c-0.1,0-0.2,0-0.2,0
		c-0.1,0-0.2,0.1-0.3,0.2c-0.1,0-0.1,0.1-0.2,0.1c-0.1,0.1-0.1,0.2-0.2,0.3c0,0-0.1,0.1-0.1,0.2c-0.1,0.2-0.1,0.4-0.1,0.6
		c0,0,0,0,0,0c0,0.5,0.2,1,0.7,1.5c0.2,0.1,0.3,0.3,0.5,0.4c0.5,0.4,1.2,0.6,2,0.7c0.2,0,0.5,0.1,0.8,0.1h0c0.2,0,0.4,0,0.5,0
		c0,0,0,0.1,0.1,0.1c0.2,0.5,0.5,1,0.8,1.4c0.2,0.2,0.4,0.4,0.6,0.6c0.6,0.6,1.4,1,2.2,1.2c0.5,0.1,1,0.2,1.5,0.2c0,0,0,0,0,0
		c0.2,0,0.4,0,0.6,0c0.3,0,0.6,0,0.8-0.1c0.1,0,0.1,0,0.2,0c0.2,0,0.5-0.1,0.7-0.2l0,0c0.2-0.1,0.4-0.2,0.6-0.3
		c0.2-0.2,0.3-0.4,0.4-0.5c0.1-0.1,0.1-0.2,0.1-0.3c0,0,0-0.1,0-0.1c0-0.1,0-0.2,0-0.3C104.1,36.8,104,36.7,104,36.6z M97.8,31.3
		c0-0.5,0.1-1,0.3-1.5c0.1-0.3,0.2-0.6,0.3-0.9c0-0.1,0.1-0.1,0.1-0.2c0,0,0,0,0,0c0.1-0.1,0.1-0.2,0.2-0.3c0,0,0.1-0.1,0.1-0.1
		c0.1-0.1,0.1-0.1,0.2-0.2c0,0,0.1-0.1,0.1-0.1c0.1,0,0.1-0.1,0.2-0.1c0,0,0.1,0,0.1,0c0.1,0,0.1,0,0.2,0l0,0c0.1,0,0.2,0,0.3,0.1
		s0.2,0.1,0.3,0.2c0.2,0.2,0.3,0.4,0.3,0.6c0,0.3-0.1,0.6-0.3,0.9c-0.2,0.3-0.4,0.6-0.7,0.9c-0.2,0.2-0.4,0.4-0.7,0.6
		c-0.3,0.2-0.6,0.4-1,0.6C97.8,31.6,97.8,31.4,97.8,31.3z"/>
	<path class="st1" d="M117.2,27.2c-0.1-0.3-0.2-0.7-0.4-1c-0.4-0.4-0.8-0.6-1.2-0.7l0,0c-0.2,0-0.4,0-0.7,0c-0.1,0-0.3,0-0.4,0
		c-0.2,0-0.4,0.1-0.6,0.1c-0.1,0-0.2,0.1-0.4,0.1c-0.2,0.1-0.4,0.2-0.6,0.3c-0.1,0-0.2,0.1-0.3,0.1c-0.3,0.2-0.6,0.4-0.9,0.6
		c0,0,0,0,0,0c-0.2,0.2-0.4,0.4-0.6,0.5c-0.3,0.3-0.7,0.6-1,0.9c-0.3,0.3-0.5,0.5-0.8,0.9l0,0c0-0.2-0.1-0.4-0.1-0.5l-0.1-0.4
		l-0.1-0.3c-0.1-0.6-0.3-1.1-0.5-1.4c-0.1-0.1-0.2-0.2-0.2-0.3c-0.1-0.1-0.2-0.2-0.4-0.3c-0.2-0.1-0.4-0.2-0.6-0.2
		c-0.1,0-0.1,0-0.2,0c0,0-0.1,0-0.1,0c-0.1,0-0.1,0-0.1,0.1c0,0-0.1,0-0.1,0c-0.1,0-0.1,0.1-0.1,0.1c0,0-0.1,0-0.1,0.1
		c-0.1,0.1-0.1,0.1-0.2,0.2l0,0c-0.1,0.1-0.2,0.3-0.2,0.5c-0.1,0.1-0.1,0.3-0.1,0.5c0,0.6,0,1.3,0.1,2c0,0.2,0.1,0.3,0.1,0.5
		c0.1,0.2,0.1,0.3,0.2,0.5s0.2,0.3,0.3,0.4c0.1,0.9,0.2,1.6,0.2,2.3v0c0,0.7-0.2,1.5-0.3,2.4c0,0.1-0.1,0.2-0.1,0.3
		c-0.1,0.3-0.2,0.6-0.2,0.8l-0.1,0.4l0,0.2c0,0.2,0,0.5,0.1,0.7s0.2,0.5,0.3,0.7c0,0,0,0,0.1,0.1c0.1,0.1,0.1,0.2,0.2,0.2
		c0,0,0,0,0,0.1c0,0,0,0,0,0c0.3,0.3,0.6,0.5,0.9,0.5l0,0l0,0l0,0c0.1,0,0.1,0,0.2,0c0,0,0.1,0,0.1,0c0.1,0,0.1,0,0.1-0.1
		c0,0,0.1,0,0.1-0.1c0,0,0.1-0.1,0.1-0.1c0,0,0.1-0.1,0.1-0.1c0-0.1,0.1-0.1,0.1-0.2c0,0,0.1-0.1,0.1-0.2c0-0.1,0.1-0.2,0.1-0.3
		c0-0.1,0.1-0.1,0.1-0.2c0-0.1,0.1-0.2,0.1-0.4c0-0.1,0.1-0.1,0.1-0.2c0-0.1,0.1-0.3,0.1-0.5c0-0.1,0-0.2,0.1-0.3
		c0-0.2,0.1-0.4,0.1-0.7c0-0.1,0-0.1,0-0.2c0.3-1.5,0.7-2.8,1.3-3.9c0.1-0.2,0.2-0.4,0.4-0.6c0.7-1,1.6-1.8,2.7-2.3
		c0.2,0.1,0.3,0.1,0.3,0.1c0.1,0,0.1,0,0.2,0l0,0l0,0l0,0c0.1,0,0.1,0,0.2,0c0,0,0.1,0,0.1,0c0.1,0,0.1,0,0.2,0c0,0,0.1,0,0.1,0
		c0.1,0,0.2,0,0.2-0.1c0,0,0.1,0,0.1,0c0.1,0,0.3-0.1,0.4-0.2c0.1,0,0.3-0.1,0.6-0.3c0.1-0.1,0.2-0.1,0.3-0.2
		c0.2-0.1,0.3-0.3,0.4-0.6c0-0.1,0.1-0.2,0.1-0.3C117.3,27.4,117.2,27.3,117.2,27.2z"/>
	<path class="st2" d="M24.9,40c-0.1-0.5-0.4-0.9-0.6-1.2l0,0c-0.1-0.1-0.1-0.2-0.2-0.2c0,0,0-0.1-0.1-0.1c0,0,0,0,0-0.1
		c-0.1-0.4-0.1-0.8-0.5-1.2c-0.2-0.3-0.5-0.5-0.7-0.7c0-0.4,0-0.8-0.1-1.2c-0.1-0.6-0.1-1.1-0.3-1.7c-0.4-2.1-1.2-4.1-2.3-5.9
		c-0.9-1.4-2-2.7-3.2-3.8c0.3-1.3,0.6-2.8,0.7-4.4c0.2-1.8,0.1-3.6-0.3-5.3c-0.8-3.5-2.4-6.6-4.8-9.1c0,0-0.2-0.2-0.3-0.2
		s-0.1,0.3-0.1,0.4c0.2,0.8,0.4,1.5,0.6,2.2c0.2,0.9,0.5,1.7,0.6,2.6c0.3,1.5,0.6,3.1,0.8,4.6c0.2,2,0.3,4.4,0.2,7l-2.8-2.3
		c-0.4-0.3-0.7-0.6-1.1-1c0,0,0,0,0,0c-0.5-0.5-1-1-1.5-1.5c-0.1-0.1-0.1-0.2-0.2-0.2c-0.4-0.4-0.8-0.9-1.2-1.3
		c-0.2-0.2-0.4-0.5-0.6-0.7c-0.2-0.3-0.5-0.6-0.7-0.9c-0.4-0.6-0.8-1.1-1.2-1.7c0,0,0,0,0,0c-0.2-0.4-0.5-0.8-0.7-1.1
		c-2-3.3-3.1-7.2-4.2-10.6c0,0-0.1-0.3-0.3-0.3S0,0.4,0,0.4c0.6,3.4,1.4,7.5,3.1,11.2c1.5,3.4,3.9,6.8,6.8,9.7
		c0.3,0.3,0.6,0.6,0.8,0.9c1.2,1.2,2.3,2.3,3.4,3.5C14,27,13.9,28.1,14,29.3c0.1,1.9,0.6,3.7,1.6,5.1c0.6,0.9,1.3,1.7,2.2,2.4
		c0.7,0.6,1.5,1.1,2.3,1.6c0.1,0,0.1,0.1,0.2,0.2v0c0,0,0,0.1,0,0.1c0,0.2,0.1,0.4,0.2,0.6c0.1,0.2,0.3,0.4,0.4,0.6
		c0.1,0.1,0.1,0.2,0.2,0.3c0,0,0,0,0.1,0.1c0,0,0,0,0,0.1c0,0.3,0.1,0.6,0.3,0.9c0.1,0.1,0.1,0.2,0.2,0.3c0.1,0.1,0.2,0.3,0.4,0.4
		c0.1,0.1,0.3,0.2,0.4,0.3c0.1,0.1,0.2,0.1,0.3,0.2c0.2,0.2,0.4,0.2,0.6,0.2c0,0,0,0,0,0c0,0,0.1,0,0.1,0c0.2,0,0.3,0,0.5-0.1
		l0.1-0.1c0.2-0.1,0.4-0.3,0.5-0.5c0.1-0.3,0.2-0.6,0.2-0.9c0-0.3,0-0.5,0-0.8C25,40.2,24.9,40.1,24.9,40z M20.3,37.4
		C20.3,37.4,20.3,37.3,20.3,37.4c-0.1-0.1-0.1-0.1-0.1-0.1c-0.1-0.1-0.2-0.1-0.2-0.2c-1.5-1.3-2.4-2.4-3-3.6l0,0
		c-0.8-1.5-1.1-3.1-0.8-5.5c0.4,0.5,0.9,1,1.3,1.5c1.4,1.7,2.5,3.7,3.6,6.6l-0.1,0c-0.2,0.1-0.4,0.3-0.5,0.5
		C20.5,36.9,20.4,37.1,20.3,37.4C20.3,37.4,20.3,37.4,20.3,37.4z"/>
</g>
<g>
	<g>
		<path class="st2" d="M126.1,39.9l-0.2-0.6h7.5V34H128l-0.2-0.6h5.6v-4.9H129l-0.1,0.2c-0.3,0.6-0.6,1.2-0.9,1.7
			c-0.3,0.5-0.7,0.9-1,1.3l-0.8,0.8c-0.1,0.1-0.2,0.1-0.2,0c0-0.1,0-0.2,0-0.2c0.3-0.5,0.6-1,0.9-1.7c0.3-0.7,0.6-1.4,0.7-2.1
			c0.2-0.9,0.4-1.7,0.4-2.3l0.1-1.6c0-0.2,0.1-0.3,0.3-0.3l1.1,0.3l1,0.3c0.2,0.1,0.3,0.2,0.3,0.4c0,0.2-0.2,0.3-0.5,0.3
			c-0.1,0-0.2,0.1-0.3,0.3l-0.7,2.1h4.2v-4.8c0,0,0-0.1,0.1-0.1c0.7,0.1,1.3,0.2,1.9,0.3c0.2,0.1,0.4,0.2,0.4,0.3
			c0,0.1-0.1,0.3-0.4,0.4c-0.1,0-0.1,0.1-0.1,0.2v3.7h2.8l0.2-0.2l1-1.2c0.1-0.1,0.2-0.1,0.4,0c0.7,0.4,1.2,0.9,1.7,1.6
			c0.1,0.1,0.1,0.2,0.1,0.3c-0.1,0.1-0.2,0.1-0.4,0.1h-5.7v4.9h2l0.2-0.2l1-1.2c0.1-0.1,0.2-0.1,0.4,0c0.7,0.4,1.2,0.9,1.7,1.6
			c0.1,0.1,0.1,0.2,0.1,0.3c-0.1,0.1-0.2,0.1-0.4,0.1h-5v5.4h3.5l0.2-0.2l1-1.2c0.1-0.1,0.2-0.1,0.4,0c0.7,0.4,1.2,0.9,1.7,1.6
			c0.1,0.1,0.1,0.2,0.1,0.3c-0.1,0.1-0.2,0.1-0.4,0.1h-2.5H126.1z"/>
		<path class="st2" d="M150.5,28.2c0.6,0.2,1,0.6,1.2,0.9c0.2,0.4,0.2,0.8,0.1,1.2c-0.1,0.3-0.3,0.6-0.6,0.8c-0.3,0.1-0.6,0.1-0.9,0
			c-0.2-0.1-0.4-0.4-0.6-0.8c-0.1-0.3-0.3-0.7-0.6-1c-0.3-0.4-0.7-0.7-1-0.9c-0.1-0.1-0.2-0.2-0.2-0.3c0-0.1,0.1-0.1,0.3-0.1
			C149.1,27.8,149.9,27.9,150.5,28.2z M152.6,32.6c0.1,0.1,0.1,0.2,0,0.4l-1.9,4.3c-0.3,0.7-0.6,1.5-0.8,2.2
			c-0.2,0.4-0.3,0.5-0.5,0.1c-0.2-0.5-0.6-1.1-1-1.6c-0.2-0.3-0.2-0.5,0-0.7c0.9-0.8,2.3-2.4,4-4.8
			C152.4,32.6,152.5,32.5,152.6,32.6z M151.6,23.6c0.6,0.2,1,0.5,1.2,0.8c0.2,0.4,0.3,0.8,0.2,1.2c-0.1,0.3-0.3,0.6-0.5,0.8
			c-0.3,0.2-0.6,0.2-0.9,0c-0.2-0.1-0.5-0.4-0.7-0.8c-0.1-0.3-0.4-0.7-0.6-1c-0.3-0.4-0.7-0.6-1-0.8c-0.1-0.1-0.2-0.2-0.2-0.2
			c0-0.1,0.1-0.1,0.3-0.1C150.2,23.4,151,23.5,151.6,23.6z M155.6,40c-0.2,0.1-0.5,0.2-0.8,0.3c-0.2,0-0.4-0.1-0.6-0.2
			c-0.1-0.1-0.1-0.2-0.1-0.5v-7.1c0-0.1,0-0.1,0.2-0.1c0.5,0.1,1.1,0.4,1.7,0.7h2.2v-3.7h-4.8l-0.2-0.6h4.9v-3.3
			c-1.7,0.1-3,0.1-4,0.1c-0.1,0-0.2-0.1-0.2-0.1c0-0.1,0-0.2,0.2-0.2c1.9-0.3,3.5-0.6,4.9-1c1.1-0.3,2-0.7,2.7-1
			c0.1-0.1,0.2-0.1,0.3,0c0.3,0.2,0.9,0.5,1.6,1.2c0.2,0.2,0.3,0.3,0.2,0.4c-0.1,0.1-0.2,0.2-0.4,0.1h-0.5l-2.8,0.4v3.5h1.5l0.2-0.2
			l1-1.2c0.1-0.1,0.2-0.1,0.4,0c0.7,0.4,1.2,0.9,1.7,1.6c0.1,0.1,0.1,0.2,0.1,0.3c-0.1,0.1-0.2,0.1-0.4,0.1H160v3.7h1.6l0.2-0.1
			l0.5-0.5c0.1,0,0.1,0,0.2,0c0.5,0.2,1,0.6,1.4,0.9c0.1,0.1,0.2,0.2,0.2,0.3c0,0.1-0.1,0.2-0.3,0.3c-0.1,0-0.1,0.1-0.1,0.2v4.2
			l0.3,0.4c0.1,0.1,0.1,0.2,0.1,0.4c0,0.1,0,0.2-0.1,0.2h-8.1C155.9,39.7,155.8,39.9,155.6,40z M155.9,33.8v5.1h5.9v-5.1H155.9z"/>
		<path class="st2" d="M173.6,28.2c0-0.1,0.1-0.2,0.2-0.1c0.3,0,0.9,0.2,1.8,0.5c0.3,0.1,0.4,0.2,0.4,0.4c0,0.1-0.2,0.2-0.4,0.2
			c-0.1,0-0.1,0-0.2,0.2l-1.1,1.8l0.7,0.4c0.1,0.1,0.2,0.2,0.2,0.3c0,0.1-0.1,0.2-0.3,0.3c-0.1,0-0.2,0.1-0.1,0.1v7.2
			c0,0.3-0.1,0.5-0.4,0.6c-0.4,0.2-0.8,0.2-1.2,0c-0.2-0.1-0.3-0.3-0.3-0.6V33c-0.9,1-1.8,1.6-2.8,2.1c-0.1,0-0.1,0-0.2,0
			c0-0.1,0-0.1,0.1-0.2c0.8-0.7,1.5-1.7,2.2-2.8c0.7-1.2,1.2-2.4,1.5-3.6L173.6,28.2z M173,23.3v-0.1c0-0.1,0-0.1,0.1-0.1l1.9,0.1
			c0.3,0,0.5,0.1,0.5,0.3c0,0.2-0.1,0.3-0.4,0.5c-0.1,0-0.1,0.1-0.1,0.3l0.2,1h0.3l0.3-0.1l0.8-1.1c0.1-0.2,0.3-0.2,0.4-0.1
			c0.4,0.3,0.8,0.8,1.1,1.3c0.1,0.2,0.1,0.3,0.1,0.4c0,0.1-0.2,0.2-0.3,0.2h-2.6l0.2,0.8c0.1,0.3,0,0.5-0.2,0.7
			c-0.3,0.3-0.7,0.4-1.2,0.4c-0.3-0.1-0.4-0.2-0.5-0.5l-0.3-1.4h-3.3l-0.2-0.6h3.3L173,23.3z M183.3,25.8l-0.4,1.8
			c-0.1,0.3-0.3,0.4-0.5,0.5c-0.4,0.1-0.8,0.1-1.1-0.1c-0.2-0.1-0.2-0.3-0.2-0.5l0.4-1.7h-2.4l-0.2-0.6h2.7l0.2-1.3l0.1-0.8
			c0-0.1,0.1-0.2,0.1-0.1c0.6,0.1,1.1,0.2,1.7,0.4c0.3,0.1,0.4,0.2,0.4,0.4s-0.1,0.2-0.3,0.3c-0.1,0-0.2,0.1-0.2,0.2l-0.2,1h0.8
			l0.3-0.1l0.8-1.1c0.1-0.2,0.3-0.2,0.4-0.1c0.4,0.3,0.8,0.8,1.1,1.3c0.1,0.2,0.1,0.3,0.1,0.4c0,0.1-0.2,0.2-0.3,0.2h-2H183.3z
			 M180.8,32.6v5.1c0,0.2,0.1,0.3,0.2,0.4c0.2,0.1,0.7,0.2,1.7,0.2l1.6,0c0.3,0,0.5-0.1,0.6-0.2c0.2-0.2,0.3-0.6,0.4-1l0.2-1.2
			c0-0.1,0.1-0.2,0.2-0.2c0.1,0,0.2,0,0.2,0.2v1.4c0,0.3,0.2,0.6,0.4,0.8c0.4,0.2,0.5,0.4,0.5,0.9c0,0.3-0.3,0.6-0.8,0.8
			c-0.6,0.2-1.8,0.3-3.5,0.4c-1.8,0-2.8-0.2-3.2-0.6c-0.3-0.4-0.5-0.8-0.5-1.2v-9.7c0,0,0-0.1,0.1-0.1c0.7,0.1,1.3,0.2,1.9,0.3
			c0.2,0.1,0.4,0.2,0.4,0.3c0,0.1-0.1,0.3-0.4,0.4c-0.1,0-0.1,0.1-0.1,0.2V32h2.1l0.2-0.2l1-1.2c0.1-0.1,0.2-0.1,0.4,0
			c0.7,0.4,1.2,0.9,1.7,1.6c0.1,0.1,0.1,0.2,0.1,0.3c-0.1,0.1-0.2,0.1-0.4,0.1h-2.4H180.8z"/>
		<path class="st2" d="M195.1,23.4v-0.1c0-0.1,0-0.1,0.1-0.1c0.6-0.1,1.2-0.1,1.9-0.1c0.3,0,0.5,0.1,0.5,0.2c0,0.2-0.1,0.3-0.3,0.5
			c-0.1,0-0.1,0.2-0.1,0.3l0.1,0.4h0.4l0.3-0.1l0.8-1.1c0.1-0.2,0.3-0.2,0.4-0.1c0.4,0.3,0.8,0.8,1.1,1.3c0.1,0.2,0.1,0.3,0.1,0.4
			c0,0.1-0.2,0.2-0.3,0.2h-2.6l0.1,0.3c0.1,0.3,0.1,0.5-0.1,0.7l-0.1,0.1l0.2,0c0.3,0,0.4,0.1,0.4,0.3c0,0.1-0.1,0.2-0.3,0.3
			c-0.1,0-0.2,0.1-0.2,0.3h0.8l0.2-0.1l0.7-1c0.1-0.2,0.2-0.2,0.4-0.1c0.4,0.3,0.7,0.7,1,1.2c0.1,0.1,0.1,0.2,0.1,0.3
			c0,0.1-0.1,0.1-0.2,0.1h-0.3c0.3,0.3,0.6,0.6,0.9,1c0.1,0.1,0.1,0.2,0.1,0.3c0,0.1-0.1,0.1-0.2,0.1H199l0.1,0.3
			c0.1,0.1,0.2,0.2,0.5,0.2h0.7c0.2,0,0.4,0.1,0.6,0.2c0.1,0.1,0.2,0.3,0.2,0.5c0,0.3-0.1,0.4-0.3,0.5L200,31l0.6,0.8
			c0.1,0.1,0.1,0.2,0.1,0.3c0,0.1-0.1,0.1-0.2,0.1h-2.9v0.8l2.9-0.3c0.2,0,0.2,0,0.3,0.1c0,0.1,0,0.2-0.2,0.2l-1.9,0.5
			c-1.3,0.3-2.7,0.7-4.4,1c-0.3,0-0.4,0.1-0.5,0.2c0,0.1-0.1,0.2-0.2,0.2c-0.1,0-0.2-0.1-0.3-0.2l-0.2-0.8l-0.2-0.8
			c0-0.1,0-0.1,0.2-0.1h2.6v-0.9h-2.6l-0.1-0.4h2.7v-1.4c0-0.1,0-0.1,0.1-0.1c0.6,0,1.2,0.1,1.8,0.2l0.2,0.1l-0.3-0.3
			c-0.1-0.3-0.2-0.6-0.2-1.1v0h-1.4c0,0.2-0.1,0.5-0.2,0.7c-0.1,0.3-0.4,0.6-0.7,0.8c-0.3,0.2-0.7,0.4-1.2,0.5l-1.2,0.2
			c-0.1,0-0.1-0.1-0.1-0.1c0-0.1,0.1-0.1,0.1-0.1l0.6-0.3l0.6-0.5c0.2-0.2,0.3-0.4,0.4-0.6l0.1-0.6h-1.8l-0.1-0.4h3.4v-1h-2.5
			l-0.1-0.4h2.7v-1c0-0.1,0-0.1,0.1-0.1h0l-0.3-1h-3.2l-0.2-0.6h3.2L195.1,23.4z M206,36.2l0.2-0.1l0.9-0.9c0.1-0.2,0.2-0.2,0.4-0.1
			c0.6,0.3,1.1,0.8,1.6,1.2l0.1,0.2c0,0.1-0.1,0.1-0.2,0.1h-9.1l-2,1l-1.8,0.7l3,0.1c1.8,0,3.5-0.1,5.1-0.2c-0.5-0.4-1-0.8-1.4-1.1
			c0,0-0.1-0.1-0.1-0.2c0-0.1,0.1-0.1,0.2-0.1l0.5,0.1c1,0.2,1.8,0.5,2.4,0.8c0.6,0.3,0.9,0.5,1.1,0.7c0.2,0.3,0.4,0.6,0.4,0.9
			c0,0.3-0.1,0.5-0.3,0.6c-0.2,0.2-0.4,0.2-0.7,0.1c-0.2-0.1-0.5-0.3-0.8-0.6l-0.9-1l-2.1,0.4c-1.8,0.3-3.9,0.6-6.3,0.9
			c-0.3,0-0.5,0.1-0.5,0.2c-0.1,0.1-0.1,0.2-0.3,0.2c-0.1,0-0.2-0.1-0.3-0.2l-0.2-0.8l-0.2-0.9c0-0.1,0-0.2,0.2-0.1l0.3,0l1.4-0.9
			l0.8-0.7h-5l-0.1-0.4h13.4H206z M202.5,34.6l0.2-0.1l0.9-0.9c0.1-0.2,0.2-0.2,0.4-0.1c0.6,0.3,1.1,0.8,1.6,1.2l0.1,0.2
			c0,0.1-0.1,0.1-0.2,0.1h-9.3l-0.1-0.4h6.2H202.5z M198.1,30.8l-0.2-0.1l0.1,0.1c0,0.1-0.1,0.2-0.3,0.3c-0.1,0-0.2,0.2-0.2,0.3v0.3
			h0.7l0.2-0.1L199,31C198.6,31,198.3,30.9,198.1,30.8z M197.6,28.7h1.2l0.2-0.1l0.6-0.9h-2V28.7z M205.6,25.2l-0.3,0.9
			c-0.1,0.3-0.2,0.4-0.6,0.5l-0.2,0.1h0.1c0.3,0,0.4,0.1,0.4,0.3s-0.1,0.2-0.3,0.3c-0.1,0-0.2,0.1-0.2,0.2l-0.1,0.7h1.1
			c0.3-0.3,0.5-0.5,0.8-0.7c0.1,0,0.2,0,0.2,0c0.4,0.3,0.8,0.6,1.2,1.1c0.1,0.1,0.2,0.3,0.1,0.4c0,0.1-0.2,0.2-0.5,0.2
			c-0.1,0-0.2,0.1-0.2,0.3c-0.1,0.5-0.1,0.9-0.1,1.2c0,0.3,0.1,0.6,0.1,0.8l0.2,0.3c0.1,0,0.3-0.1,0.4-0.2l0.7-1
			c0.1-0.1,0.2-0.2,0.2-0.2c0.1,0,0.1,0.1,0.1,0.2l-0.3,1.6c0,0.2,0,0.4,0.2,0.6c0.2,0.3,0.3,0.5,0.2,0.8c-0.1,0.3-0.4,0.4-0.9,0.4
			c-0.5-0.1-0.9-0.3-1.3-0.5c-0.4-0.3-0.6-0.7-0.8-1.2c-0.2-0.5-0.3-1-0.3-1.6c0-0.6,0.1-1.3,0.2-2h-1.2l-0.2,1.3l-0.2,0.8
			c0.5,0.3,0.9,0.5,1,0.7c0.2,0.3,0.3,0.7,0.3,0.9c0,0.2-0.1,0.4-0.3,0.6c-0.2,0.2-0.5,0.2-0.7,0.1c-0.3-0.1-0.5-0.3-0.8-0.6
			l-0.3-0.4c-0.3,0.4-0.8,0.8-1.3,1.2c-0.5,0.3-1,0.5-1.7,0.7c-0.1,0-0.2,0-0.2-0.1c0-0.1,0-0.1,0.1-0.2c0.3-0.2,0.7-0.5,1-0.9
			c0.3-0.4,0.6-0.7,0.7-1.1l0.3-0.9l-1.1-0.9c0-0.1-0.1-0.1-0.1-0.2c0-0.1,0.1-0.1,0.2,0l0.5,0.1l0.6,0.2l0.1-1.1v-0.4h-1.4
			l-0.2-0.6h1.6v-0.7v-0.8c0-0.1,0-0.2,0.1-0.2l0.9,0.1l0,0c-0.2-0.1-0.2-0.3-0.2-0.5l0.2-0.7h-2.4l-0.2-0.6h2.7L204,24l0.2-0.8
			c0-0.1,0.1-0.2,0.2-0.1c0.6,0.1,1.1,0.3,1.7,0.5c0.3,0.1,0.4,0.3,0.4,0.4c0,0.1-0.2,0.2-0.4,0.2c-0.1,0-0.2,0.1-0.2,0.2l-0.1,0.2
			h0.6l0.3-0.1l0.8-1.1c0.1-0.2,0.3-0.2,0.4-0.1c0.4,0.3,0.8,0.8,1.1,1.3c0.1,0.2,0.1,0.3,0.1,0.4c0,0.1-0.2,0.2-0.3,0.2h-2H205.6z"
			/>
	</g>
</g>
</svg>
